<svg xmlns="http://www.w3.org/2000/svg" width="400" height="267"><path d="M62 32v4l-4 4c-3 4-3 4-7 3H37l-15-1h-7L3 45H0v201l7-3a5624 5624 0 0 1 19-7L0 248v19h189l1-14a1881 1881 0 0 1 12-100l1 24c1 22 4 82 6 88v2h192V155a749 749 0 0 0-2-30v1c2 1 0 3-5 3-3 0-4 0-4 2l-3 1h-15c-11 0-21 1-21 3l3 1c3 1 3 1 0 1l-4-1-2-1-4-1 2-1h7l4-2h-5a896 896 0 0 0-10-2l-14-1-14-2-1 1-1 1-3 2v6c-2 4-2 4 0 4 1-1 2 2 0 4v3l1-1h1c0 2 1 2 5 2 10-2 32-2 32-1l2 1h32c2 1 2 0 3-2 0-2 0-2 1 0s4 3 4 1h1l4 2 5 1-1 1v1c1 1 1 1-1 1-1 0-2 0-1-1l-1-1-1 1h-3l-1 1h-2c-1 1 1 1 4 1 7 1 8 2 4 2-3 0-3 0-1 1 1 1 1 1-1 1l-3 1 2 1 6 1c-2 2-22 1-20-1 2-4 1-5-3-5s-4 0-3-1v-1l-4 1v1l5 1 4 1h-2l-2 1c1 1-3 2-8 1h-6l-3 2c-2 2-2 2-1 3 2 0 0 2-2 2s-2 0-1-1v-2l2-2 3-3h-6c-4 0-6 0-5 1 2 0 2 1 1 1h-2l-2-1h-1l-3-1-4 1-2 1c-1-1-1-1 0 0l1 1h-4l-1-1-7-1-3 1h2l-2 1c-3 1-5 0-4-1l-1-1v-1l1-1h-6c-1 2-3 1-2 0l3-3c3 0 3 0 2-1l-1-1-6-1c-4 0-5 0-4 1l4 1 2 1h-7l-1-1h-2c-2 0-2 0-1-1 2-1 2-1-4-2l-8 1h-4l-2-1c-2-1 5-1 15-1 9 0 9-1 1-3h-18c-2-2-4-2-7-1h-5l-2 1c0 2-2-1-2-3l2-2c2 0 2-1 2-4l1-6c0-2 0-2-3-2h-4l-1 1c0 1-2 2-5 2l-4-1-2-1-1-5c-1-5-3-10-5-10l-4 2c0 2 0 2-2 1-3-2-3-2-3 0l-1 12-2 1c-1 0-2 1-1 2 0 2 0 2-1 1l-3-1c-2 0-2 0-1-1 2 0 1-2-1-2s-2 0-1 4l3 2h1c0 2 5 1 6-2l2-3 1-2 1-3 1-3c0-2 1-3 2-3l2 1c-2 2-2 7 0 10v4l1 2v1l-1 1v3c-1 2-1 3 1 3 1 1 1 1-1 1l-2-1-2 1c-2 1-2 1-2-1v-2l-2 2v2l1 1-24-1c-1-1 0-1 2-1 4 0 7-1 7-2l-3-1c-1 1-3 1-4-1l-2-1c-2 1-6-4-6-6 1-3 4-7 5-6 1 2 2-5 1-8 0-2-1-3-2-3-2 0-2 0-1 1 3 0 2 2 0 2l-3 2h2c3-1 3-1 3 1l-1 2-1 2c-1 2-1 2-2 1l-3-4c-2-3-2-4 1-5h-14v4l-1 3-1 1 1 1h1c0 2-4 4-5 3v-2l-1-4v-1c2 0 1-2-1-2-1-1-1-1 1-1l2-1c0-1-9-1-16 1l-9-1c-5-1-8-1-4 1 2 1 2 1-1 1l-3 1 2 1h1l1 1h2l1 1h1c1 1 2 0 3-1 2-2 3-3 6-3s3 0 2 1v1l1 3v2l1 2h-3l-2-1h-4c-3 0-4 0-4-2h-2l-8 1c-6 0-8 0-8-3 0-2 2-1 2 1 0 1 1 1 4-1 4-4 4-5 1-4l-3-1-1-1c-2 0-3-15-2-21l-3-13-3-5c-1-5-2-6-6-6-10-2-10-2-11-5l-2-2h-1l2-1c2-1 2-1 1-2l-2-5-1-4c0-2-7-5-13-6l-8-2-3-2-2-1c0-2-5-3-7-2-2 2-1 3 1 2l2 1-3 1-1 2c0 2-2 1-5-1s-3-11-1-12-1-4-6-4l-4-2c0-2-5-1-5 1m215 96l-6 2c1 1 1 1-1 1s-2 1-2 5v5h5c5 0 5 0 4-2v-3l-4-1h-4l15-1 16-1c1-2-2-3-9-3-5 0-8 0-7-1a1416 1416 0 0 1-7-1m-152 24l-8 1-6 2c-4 0-4 0-1 1l4 2h-2c-3-1-4 0-3 2l3 1c2-1 4-2 3-3l8 1 5-1-1-1h-2l-2-1c-3 0-2-2 1-3s9 1 9 3v1l1-2v-2l-2-1-1-1-6 1m27 0l-7 1c-5-1-7 0-8 1s-1 1 2 1l6-1 2 1 1 2c2 1-1 4-5 4a5739 5739 0 0 1-9 0c-3 3-2 4 3 3h4l3 1h4l5 1c1 1-3 2-7 1l-5 1-2 1-2 1h-6c-2-1-2-1 0-4s0-3-2 0l-2 1-2-1v1c3 2 2 3-7 4l-8 1h-1l-2-1v2c2 1 2 3 1 3v1c2 0 2 0 1 2-2 2 1 2 3-1h3l3 1v-1c-3-2-2-4 2-4 2 0 4 1 3 2l2 1c1 1 0 1-1 1-2-1-3 0-3 1s-8 4-11 4l-2 1h-9c0 2-2 1-2-1s-1-1-2 2c0 2 1 2 4 1h4l-3 1-7 3-2 2h-2l1 1c2 2 1 3 27-8l47-20 2-1-2-2c-2-2-3-2-3 0 0 3-2 4-2 0l-1-3v-1c1-1 2-2 1-3v-2l-3-1h-4m52 0l15 8c2 1 4 2 5 1l1 1h1v1c-1 1-1 1 1 1h1v1h2l2 1 3 1v3h4v-1l1 2 2 2c3 2 4 2 4 1l3 1c2 0 3 1 3 2l-3-1-3-1 19 12 5 2-9-6c-11-6-11-8-1-3a678 678 0 0 1 95 25l39 10 6 2v-6l-29-7-29-8 3-1c4-2 4-2 7-1 1 1 4 2 5 1l3 1 9 1c4 0 7 0 6-1-3-1-5-4-4-4h2l2-2 1-2v2c0 2 0 2 3 2 2-1 4 0 2 2-2 3 2 4 6 3l4-2h2l-1-1c-1 0-2 0-1-1l3-1c5 0 6 0 6-2l-1-3v-1l1-4c0-4 0-5-2-5-2-1-2-1-1-2 4-1 2-2-3-2h-11l-8-1c-5 0-5 0-5-2s1-3 4-3c2-1 2-1-1-1-4-1-5 0-5 2 0 1-2 2-6 1h-13c-4 0-5-2-1-3l2-2-4 1c0 1-4 3-6 2-2 0 2-3 5-3v-1h-8l-1 2c1 3-2 3-2 0-1-1-2-2-3-1l-1-1-1-1h-7 2l4 1c1 1 0 2-5 2l-9 1-4-1c0-2 1-2 3-1l3-1-3-1v-1c2 0 1-2-1-2l-2 2c0 1 0 2-5 2-3 0-5-1-5-2h9l-2-2-4-2c-1-1-2-2-4-1-2 0-2 0-1-1s1-1-2-1-3 0-1 1l2 1h-2c-2 1 0 1 2 1 5 0 8 2 4 2l-2 1c0 2-6 2-14 0h-19l4 1v19h6v-3l-1-3 2 1 3 3 2 1h8c0-1 3-2 5-1 3 2 3 3 0 3h-2l1 1 3 1c1 2 5 1 5-1l1-2 1 1v1h2l2-2v1l-1 2 2-1c0-1 4 0 6 2l4 1 5 3c4 4 6 5 5 1v-3c3 0 8 3 10 6l2 2h1c2 3-8 1-30-5a103 103 0 0 0-35-4l-13-5v-2l-2-1-3-1h1v-1l1-1c2 1 2 0 2-1-1-3-2-4-3-2l-1 2v-1l-3-1c-2 0-3 0-2-1l-1-2v1l-1 1c-1 0-2-2-1-4 0-2 4-3 4-1l2 1 2 1 2 1c1-1 2 0 2 1l2 1 2 1-1 1c-2-1-1 1 1 2 1 1 1 1 1-5 0-5-1-7-2-8l-1 2-1 1-1-2-1-1-1 1h-2l-1-3-2-1c-1 0-2 0-1 2h-6l-4-1-1-2c-2 0-2 1-2 2 1 1 0 1-2 1l-4-2h-2l-2-1c0-2-8-4-12-4l-3-1-8-1c-5 0-7 0-5 1m-3 14l-1 17-5 69v15h7v-51a2620 2620 0 0 0-1-50m70 24a6115 6115 0 0 0 129 75c1 1 1 0 1-9 0-8 0-9-1-2 0 7 0 8-4 6a3468 3468 0 0 0-125-70" fill="#d3d3d3" fill-rule="evenodd"/></svg>